# xmcd
#
# Track frame offsets:
#	150
#	17369
#	37528
#	55040
#	74570
#	94968
#	110272
#	126857
#	145520
#	161210
#	174305
#	194268
#	210884
#	229985
#	248198
#	262074
#	281004
#	302800
#
# Disc length: 4276 seconds
# Revision: 0
# Processed by: cddbd v1.5.2PL0 Copyright (c) Steve Scherf et al.
# Submitted via: dBpowerAMP V12.0
#
DISCID=f510b212
DTITLE=Brendon Walmsley - The Best Of Brendon Walmsley
DYEAR=2012
DGENRE=Country
TTITLE0=Never Never
TTITLE1=Last Of The Big Gun Drovers
TTITLE2=Stay Where You Are
TTITLE3=Bottle Tree Lane
TTITLE4=Patches
TTITLE5=Who's Have Thought It
TTITLE6=Bed Of Rose's
TTITLE7=Rose and Rodeo
TTITLE8=Count Me In
TTITLE9=Speak To The Sky
TTITLE10=What Brotheres Do
TTITLE11=Still Farming
TTITLE12=Remember January
TTITLE13=Buckalong
TTITLE14=Adam
TTITLE15=Family Bible
TTITLE16=What I Miss Most
TTITLE17=One Candle
EXTD=
EXTT0=
EXTT1=
EXTT2=
EXTT3=
EXTT4=
EXTT5=
EXTT6=
EXTT7=
EXTT8=
EXTT9=
EXTT10=
EXTT11=
EXTT12=
EXTT13=
EXTT14=
EXTT15=
EXTT16=
EXTT17=
PLAYORDER=
